<svg width="1146" height="323" viewBox="0 0 1146 323" fill="none" xmlns="http://www.w3.org/2000/svg">
<g clip-path="url(#clip0_2298_5691)">
<path d="M518.923 98.4412C518.923 101.474 519.252 103.932 519.825 105.735C520.553 107.763 521.429 109.735 522.447 111.635C522.857 112.29 523.02 112.945 523.02 113.52C523.02 114.338 522.529 115.158 521.464 115.978L516.302 119.419C515.564 119.911 514.826 120.157 514.17 120.157C513.351 120.157 512.532 119.747 511.712 119.009C510.607 117.824 509.619 116.534 508.762 115.158C507.943 113.766 507.123 112.208 506.222 110.324C499.83 117.862 491.799 121.631 482.13 121.632C475.248 121.632 469.757 119.665 465.741 115.732C461.727 111.798 459.678 106.554 459.678 99.9986C459.678 93.0336 462.136 87.3795 467.135 83.1184C472.133 78.8572 478.771 76.7267 487.211 76.7267C489.997 76.7267 492.865 76.9722 495.897 77.3821C498.929 77.7919 502.043 78.4474 505.321 79.1849V73.2031C505.321 66.9748 504.009 62.6324 501.469 60.092C498.847 57.5516 494.422 56.3219 488.112 56.3219C485.244 56.3219 482.295 56.6506 479.262 57.3882C476.23 58.1258 473.28 59.0267 470.412 60.1742C469.101 60.7474 468.118 61.0751 467.544 61.2395C466.97 61.4038 466.561 61.485 466.233 61.485C465.086 61.485 464.513 60.6652 464.513 58.9445V54.929C464.513 53.6181 464.677 52.635 465.086 52.0618C465.496 51.4876 466.233 50.9143 467.381 50.3411C470.249 48.8653 473.69 47.636 477.705 46.6532C481.721 45.5879 485.983 45.0968 490.489 45.0968C500.241 45.0968 507.37 47.3086 511.959 51.7341C516.466 56.1586 518.761 62.878 518.761 71.8923V98.4412H518.923ZM485.654 110.897C488.359 110.897 491.145 110.406 494.094 109.422C497.044 108.439 499.667 106.636 501.879 104.178C503.191 102.621 504.174 100.9 504.665 98.9333C505.157 96.967 505.484 94.59 505.484 91.804V88.3626C502.999 87.7582 500.482 87.2931 497.945 86.9696C495.391 86.6455 492.818 86.4811 490.243 86.4776C484.752 86.4776 480.737 87.5429 478.034 89.7556C475.33 91.9683 474.018 95.082 474.018 99.1788C474.018 103.03 475.001 105.898 477.049 107.865C479.017 109.914 481.885 110.897 485.654 110.897ZM551.455 119.747C549.98 119.747 548.997 119.501 548.341 118.927C547.686 118.436 547.112 117.289 546.621 115.732L527.364 52.3895C526.871 50.75 526.626 49.6847 526.626 49.1115C526.626 47.8006 527.281 47.0621 528.593 47.0621H536.623C538.18 47.0621 539.246 47.3086 539.819 47.8818C540.474 48.3739 540.967 49.5213 541.458 51.0777L555.224 105.325L568.008 51.0777C568.417 49.4392 568.909 48.3739 569.564 47.8818C570.22 47.3908 571.368 47.0631 572.843 47.0631H579.398C580.954 47.0631 582.021 47.3086 582.675 47.8818C583.331 48.3739 583.905 49.5213 584.232 51.0777L597.18 105.98L611.355 51.0777C611.847 49.4392 612.421 48.3739 612.994 47.8818C613.649 47.3908 614.715 47.0631 616.19 47.0631H623.81C625.122 47.0631 625.86 47.7185 625.86 49.1115C625.86 49.5213 625.777 49.9312 625.695 50.4223C625.613 50.9134 625.45 51.5697 625.122 52.4716L605.373 115.813C604.882 117.453 604.308 118.518 603.652 119.009C602.997 119.501 601.931 119.829 600.539 119.829H593.492C591.935 119.829 590.87 119.584 590.213 119.009C589.558 118.436 588.985 117.371 588.657 115.732L575.955 62.878L563.336 115.649C562.927 117.289 562.435 118.354 561.779 118.927C561.124 119.501 559.976 119.747 558.502 119.747H551.455ZM656.753 121.96C652.492 121.96 648.231 121.468 644.134 120.484C640.036 119.501 636.841 118.435 634.71 117.207C633.399 116.469 632.497 115.65 632.17 114.913C631.851 114.189 631.684 113.408 631.678 112.618V108.439C631.678 106.718 632.333 105.898 633.563 105.898C634.065 105.9 634.563 105.983 635.038 106.145C635.529 106.309 636.267 106.636 637.087 106.964C639.981 108.237 643.002 109.199 646.1 109.832C649.31 110.482 652.577 110.812 655.852 110.815C661.014 110.815 665.03 109.914 667.815 108.111C670.601 106.308 672.077 103.686 672.077 100.326C672.077 98.0323 671.339 96.1473 669.864 94.59C668.389 93.0327 665.603 91.6406 661.588 90.3288L649.706 86.6419C643.724 84.7569 639.299 81.9709 636.595 78.283C633.891 74.6773 632.498 70.6627 632.498 66.4015C632.498 62.9601 633.235 59.928 634.71 57.3051C636.185 54.6834 638.152 52.3895 640.61 50.5866C643.068 48.7016 645.854 47.3086 649.132 46.3255C652.409 45.3424 655.851 44.9325 659.457 44.9325C661.259 44.9325 663.144 45.0147 664.947 45.2602C666.832 45.5057 668.553 45.8334 670.274 46.1611C671.912 46.571 673.47 46.9809 674.945 47.4729C676.419 47.964 677.566 48.4554 678.386 48.9471C679.534 49.6035 680.352 50.2589 680.844 50.9965C681.336 51.6519 681.582 52.5532 681.582 53.7003V57.5516C681.582 59.2723 680.927 60.1742 679.697 60.1742C679.042 60.1742 677.976 59.8455 676.584 59.1901C671.912 57.0595 666.667 55.9942 660.851 55.9942C656.18 55.9942 652.492 56.7318 649.951 58.2891C647.412 59.8455 646.1 62.2226 646.1 65.5818C646.1 67.8767 646.92 69.8429 648.558 71.4002C650.197 72.9576 653.229 74.5139 657.573 75.9069L669.208 79.5948C675.108 81.4798 679.369 84.1015 681.91 87.4607C684.45 90.8199 685.68 94.6721 685.68 98.9333C685.68 102.457 684.941 105.653 683.548 108.439C682.074 111.225 680.107 113.683 677.566 115.65C675.026 117.699 671.994 119.174 668.471 120.239C664.783 121.386 660.932 121.96 656.753 121.96Z" fill="#252F3E"/>
<path d="M672.247 161.782C645.288 181.695 606.118 192.266 572.44 192.266C525.24 192.266 482.712 174.811 450.59 145.803C448.049 143.509 450.343 140.396 453.375 142.197C488.119 162.357 530.976 174.566 575.308 174.566C605.217 174.566 638.077 168.338 668.315 155.555C672.821 153.506 676.673 158.505 672.247 161.782ZM683.474 148.999C680.033 144.574 660.693 146.868 651.925 147.934C649.303 148.262 648.893 145.967 651.27 144.247C666.675 133.43 691.996 136.544 694.946 140.149C697.896 143.837 694.126 169.157 679.704 181.285C677.492 183.17 675.362 182.187 676.345 179.729C679.622 171.615 686.915 153.342 683.474 148.999Z" fill="#FF9900"/>
</g>
<rect x="433.967" y="237.074" width="277.304" height="40.2208" rx="3.02166" stroke="#CBCBCB" stroke-width="0.863332"/>
<path d="M446.147 265.596C445.763 265.596 445.434 265.459 445.162 265.186C444.889 264.912 444.752 264.585 444.751 264.202V256.631C444.751 256.248 444.888 255.92 445.162 255.647C445.435 255.374 445.763 255.237 446.146 255.236H447.341V253.509C447.341 252.547 447.677 251.732 448.347 251.062C449.017 250.391 449.833 250.056 450.795 250.056C451.757 250.056 452.573 250.391 453.243 251.062C453.914 251.732 454.249 252.548 454.248 253.509V255.236H455.444C455.827 255.236 456.155 255.373 456.428 255.646C456.701 255.919 456.838 256.247 456.838 256.63V264.202C456.838 264.585 456.701 264.913 456.428 265.186C456.155 265.459 455.827 265.595 455.444 265.596H446.147ZM450.795 261.711C451.159 261.711 451.466 261.586 451.715 261.336C451.965 261.087 452.09 260.78 452.09 260.416C452.09 260.052 451.965 259.745 451.715 259.496C451.465 259.246 451.159 259.121 450.795 259.121C450.431 259.12 450.124 259.245 449.874 259.496C449.625 259.745 449.5 260.052 449.5 260.416C449.5 260.78 449.625 261.087 449.874 261.336C450.124 261.586 450.43 261.711 450.795 261.711ZM448.205 255.236H453.385V253.509C453.385 252.79 453.133 252.178 452.629 251.675C452.126 251.171 451.514 250.919 450.795 250.919C450.075 250.919 449.464 251.171 448.96 251.675C448.457 252.178 448.205 252.79 448.205 253.509V255.236Z" fill="black"/>
<path d="M475.506 254.65C475.447 254.153 475.208 253.767 474.79 253.492C474.371 253.217 473.858 253.08 473.249 253.08C472.805 253.08 472.416 253.152 472.082 253.296C471.752 253.44 471.493 253.638 471.307 253.889C471.124 254.141 471.032 254.427 471.032 254.748C471.032 255.016 471.096 255.246 471.224 255.439C471.354 255.629 471.521 255.788 471.724 255.915C471.927 256.04 472.139 256.143 472.362 256.224C472.584 256.303 472.788 256.367 472.975 256.416L473.995 256.69C474.257 256.759 474.548 256.854 474.868 256.975C475.192 257.096 475.501 257.261 475.795 257.47C476.093 257.676 476.338 257.941 476.531 258.265C476.724 258.589 476.82 258.986 476.82 259.457C476.82 260 476.678 260.49 476.394 260.928C476.112 261.367 475.7 261.715 475.158 261.973C474.618 262.232 473.962 262.361 473.191 262.361C472.471 262.361 471.848 262.245 471.322 262.013C470.798 261.78 470.386 261.457 470.086 261.041C469.788 260.626 469.619 260.144 469.58 259.594H470.836C470.869 259.974 470.996 260.287 471.219 260.536C471.444 260.781 471.729 260.964 472.072 261.085C472.419 261.203 472.792 261.262 473.191 261.262C473.655 261.262 474.072 261.187 474.441 261.036C474.811 260.883 475.104 260.67 475.319 260.399C475.535 260.124 475.643 259.804 475.643 259.437C475.643 259.104 475.55 258.832 475.364 258.623C475.177 258.414 474.932 258.244 474.628 258.113C474.324 257.982 473.995 257.868 473.642 257.769L472.406 257.416C471.621 257.191 471 256.869 470.542 256.45C470.084 256.031 469.855 255.484 469.855 254.807C469.855 254.244 470.007 253.754 470.311 253.335C470.619 252.913 471.031 252.586 471.547 252.354C472.067 252.119 472.648 252.001 473.289 252.001C473.936 252.001 474.512 252.117 475.015 252.349C475.519 252.578 475.918 252.892 476.212 253.291C476.51 253.69 476.667 254.143 476.683 254.65H475.506ZM482.03 262.341C481.304 262.341 480.678 262.181 480.151 261.86C479.628 261.537 479.224 261.085 478.94 260.507C478.658 259.924 478.518 259.248 478.518 258.476C478.518 257.704 478.658 257.024 478.94 256.435C479.224 255.843 479.62 255.382 480.127 255.052C480.637 254.718 481.232 254.552 481.912 254.552C482.305 254.552 482.692 254.617 483.075 254.748C483.457 254.879 483.806 255.091 484.119 255.385C484.433 255.677 484.684 256.062 484.87 256.543C485.056 257.024 485.15 257.616 485.15 258.319V258.809H479.342V257.809H483.972C483.972 257.384 483.887 257.004 483.717 256.671C483.55 256.337 483.312 256.074 483.001 255.881C482.694 255.688 482.331 255.591 481.912 255.591C481.451 255.591 481.052 255.706 480.715 255.935C480.382 256.161 480.125 256.455 479.945 256.818C479.765 257.181 479.675 257.57 479.675 257.985V258.652C479.675 259.221 479.773 259.704 479.97 260.099C480.169 260.492 480.445 260.791 480.799 260.997C481.152 261.2 481.562 261.301 482.03 261.301C482.334 261.301 482.609 261.259 482.854 261.174C483.102 261.085 483.317 260.955 483.497 260.781C483.676 260.605 483.815 260.386 483.913 260.124L485.032 260.438C484.914 260.817 484.716 261.151 484.438 261.439C484.16 261.723 483.817 261.945 483.408 262.106C482.999 262.263 482.54 262.341 482.03 262.341ZM490.179 262.341C489.472 262.341 488.864 262.174 488.354 261.841C487.844 261.507 487.451 261.048 487.177 260.462C486.902 259.877 486.765 259.208 486.765 258.456C486.765 257.691 486.905 257.016 487.186 256.43C487.471 255.842 487.867 255.382 488.374 255.052C488.884 254.718 489.479 254.552 490.159 254.552C490.689 254.552 491.166 254.65 491.591 254.846C492.017 255.042 492.365 255.317 492.636 255.67C492.908 256.023 493.076 256.435 493.142 256.906H491.984C491.896 256.563 491.699 256.259 491.395 255.994C491.094 255.726 490.689 255.591 490.179 255.591C489.727 255.591 489.332 255.709 488.992 255.945C488.655 256.177 488.392 256.506 488.202 256.931C488.015 257.352 487.922 257.848 487.922 258.417C487.922 258.999 488.014 259.506 488.197 259.938C488.383 260.369 488.645 260.704 488.982 260.943C489.322 261.182 489.721 261.301 490.179 261.301C490.48 261.301 490.753 261.249 490.998 261.144C491.243 261.04 491.451 260.889 491.621 260.693C491.791 260.497 491.912 260.261 491.984 259.987H493.142C493.076 260.431 492.914 260.832 492.656 261.188C492.401 261.542 492.062 261.823 491.64 262.032C491.222 262.238 490.735 262.341 490.179 262.341ZM499.789 259.104V254.65H500.947V262.184H499.789V260.909H499.711C499.534 261.291 499.26 261.617 498.887 261.885C498.514 262.15 498.043 262.282 497.474 262.282C497.003 262.282 496.585 262.179 496.218 261.973C495.852 261.764 495.564 261.45 495.355 261.031C495.146 260.61 495.041 260.078 495.041 259.437V254.65H496.199V259.359C496.199 259.908 496.352 260.346 496.66 260.673C496.97 261 497.366 261.164 497.847 261.164C498.135 261.164 498.427 261.09 498.725 260.943C499.026 260.796 499.278 260.57 499.48 260.266C499.686 259.962 499.789 259.575 499.789 259.104ZM503.275 262.184V254.65H504.393V255.788H504.471C504.609 255.415 504.857 255.112 505.217 254.88C505.577 254.648 505.982 254.532 506.434 254.532C506.519 254.532 506.625 254.534 506.752 254.537C506.88 254.54 506.976 254.545 507.042 254.552V255.729C507.003 255.719 506.913 255.704 506.772 255.685C506.635 255.662 506.489 255.65 506.335 255.65C505.969 255.65 505.642 255.727 505.354 255.881C505.07 256.031 504.844 256.241 504.677 256.509C504.514 256.774 504.432 257.076 504.432 257.416V262.184H503.275ZM511.551 262.341C510.825 262.341 510.199 262.181 509.672 261.86C509.149 261.537 508.745 261.085 508.461 260.507C508.179 259.924 508.039 259.248 508.039 258.476C508.039 257.704 508.179 257.024 508.461 256.435C508.745 255.843 509.141 255.382 509.648 255.052C510.158 254.718 510.753 254.552 511.433 254.552C511.826 254.552 512.213 254.617 512.596 254.748C512.978 254.879 513.327 255.091 513.641 255.385C513.955 255.677 514.205 256.062 514.391 256.543C514.577 257.024 514.671 257.616 514.671 258.319V258.809H508.863V257.809H513.493C513.493 257.384 513.408 257.004 513.238 256.671C513.072 256.337 512.833 256.074 512.522 255.881C512.215 255.688 511.852 255.591 511.433 255.591C510.972 255.591 510.573 255.706 510.236 255.935C509.903 256.161 509.646 256.455 509.466 256.818C509.286 257.181 509.196 257.57 509.196 257.985V258.652C509.196 259.221 509.294 259.704 509.491 260.099C509.69 260.492 509.967 260.791 510.32 260.997C510.673 261.2 511.083 261.301 511.551 261.301C511.855 261.301 512.13 261.259 512.375 261.174C512.624 261.085 512.838 260.955 513.018 260.781C513.197 260.605 513.336 260.386 513.435 260.124L514.553 260.438C514.435 260.817 514.237 261.151 513.959 261.439C513.681 261.723 513.338 261.945 512.929 262.106C512.521 262.263 512.061 262.341 511.551 262.341ZM519.484 262.341C518.856 262.341 518.302 262.183 517.821 261.865C517.34 261.545 516.964 261.094 516.693 260.511C516.421 259.926 516.286 259.234 516.286 258.437C516.286 257.645 516.421 256.958 516.693 256.376C516.964 255.794 517.342 255.345 517.826 255.027C518.31 254.71 518.869 254.552 519.504 254.552C519.994 254.552 520.382 254.633 520.666 254.797C520.954 254.957 521.173 255.14 521.323 255.346C521.477 255.549 521.597 255.716 521.682 255.847H521.78V252.138H522.937V262.184H521.819V261.027H521.682C521.597 261.164 521.476 261.337 521.319 261.547C521.162 261.753 520.938 261.937 520.647 262.101C520.355 262.261 519.968 262.341 519.484 262.341ZM519.641 261.301C520.105 261.301 520.498 261.18 520.818 260.938C521.139 260.693 521.382 260.355 521.549 259.923C521.716 259.488 521.799 258.986 521.799 258.417C521.799 257.854 521.718 257.362 521.554 256.94C521.39 256.515 521.148 256.185 520.828 255.95C520.508 255.711 520.112 255.591 519.641 255.591C519.15 255.591 518.742 255.717 518.415 255.969C518.091 256.218 517.847 256.556 517.684 256.985C517.523 257.41 517.443 257.887 517.443 258.417C517.443 258.953 517.525 259.441 517.689 259.879C517.855 260.314 518.101 260.66 518.424 260.919C518.751 261.174 519.157 261.301 519.641 261.301ZM529.675 262.184V252.138H530.832V255.847H530.93C531.015 255.716 531.133 255.549 531.284 255.346C531.437 255.14 531.656 254.957 531.941 254.797C532.229 254.633 532.618 254.552 533.108 254.552C533.743 254.552 534.302 254.71 534.786 255.027C535.27 255.345 535.648 255.794 535.919 256.376C536.19 256.958 536.326 257.645 536.326 258.437C536.326 259.234 536.19 259.926 535.919 260.511C535.648 261.094 535.272 261.545 534.791 261.865C534.31 262.183 533.756 262.341 533.128 262.341C532.644 262.341 532.256 262.261 531.965 262.101C531.674 261.937 531.45 261.753 531.293 261.547C531.136 261.337 531.015 261.164 530.93 261.027H530.793V262.184H529.675ZM530.813 258.417C530.813 258.986 530.896 259.488 531.063 259.923C531.23 260.355 531.473 260.693 531.794 260.938C532.114 261.18 532.507 261.301 532.971 261.301C533.455 261.301 533.859 261.174 534.183 260.919C534.51 260.66 534.755 260.314 534.918 259.879C535.085 259.441 535.169 258.953 535.169 258.417C535.169 257.887 535.087 257.41 534.923 256.985C534.763 256.556 534.519 256.218 534.192 255.969C533.869 255.717 533.461 255.591 532.971 255.591C532.5 255.591 532.104 255.711 531.784 255.95C531.463 256.185 531.221 256.515 531.058 256.94C530.894 257.362 530.813 257.854 530.813 258.417ZM538.78 265.01C538.584 265.01 538.409 264.993 538.255 264.961C538.101 264.931 537.995 264.902 537.936 264.872L538.231 263.852C538.512 263.924 538.76 263.95 538.976 263.93C539.192 263.911 539.383 263.814 539.55 263.641C539.72 263.471 539.876 263.195 540.016 262.812L540.232 262.223L537.446 254.65H538.702L540.781 260.654H540.86L542.94 254.65H544.195L540.997 263.283C540.853 263.672 540.675 263.994 540.463 264.249C540.25 264.508 540.003 264.699 539.722 264.823C539.444 264.948 539.13 265.01 538.78 265.01ZM551.568 262.184H549.292L552.76 252.138H555.497L558.96 262.184H556.684L554.168 254.434H554.089L551.568 262.184ZM551.426 258.235H556.802V259.893H551.426V258.235ZM560.337 262.184V254.65H562.329V255.979H562.417C562.574 255.538 562.836 255.189 563.202 254.934C563.568 254.679 564.007 254.552 564.517 254.552C565.033 254.552 565.473 254.681 565.836 254.939C566.199 255.194 566.441 255.541 566.562 255.979H566.641C566.794 255.547 567.072 255.202 567.475 254.944C567.88 254.682 568.359 254.552 568.912 254.552C569.615 254.552 570.186 254.776 570.624 255.224C571.065 255.668 571.286 256.299 571.286 257.117V262.184H569.201V257.529C569.201 257.11 569.09 256.797 568.868 256.587C568.645 256.378 568.367 256.273 568.034 256.273C567.654 256.273 567.359 256.394 567.146 256.636C566.933 256.875 566.827 257.191 566.827 257.583V262.184H564.801V257.485C564.801 257.115 564.695 256.821 564.482 256.602C564.273 256.383 563.997 256.273 563.653 256.273C563.421 256.273 563.212 256.332 563.026 256.45C562.842 256.564 562.697 256.726 562.589 256.936C562.481 257.142 562.427 257.384 562.427 257.662V262.184H560.337ZM575.292 262.326C574.812 262.326 574.383 262.243 574.007 262.076C573.631 261.906 573.334 261.656 573.114 261.326C572.899 260.992 572.791 260.577 572.791 260.08C572.791 259.661 572.868 259.31 573.021 259.025C573.175 258.741 573.384 258.512 573.649 258.338C573.914 258.165 574.215 258.034 574.552 257.946C574.892 257.858 575.248 257.796 575.621 257.76C576.059 257.714 576.412 257.671 576.681 257.632C576.949 257.59 577.143 257.527 577.264 257.446C577.385 257.364 577.446 257.243 577.446 257.083V257.053C577.446 256.743 577.348 256.502 577.151 256.332C576.959 256.162 576.684 256.077 576.327 256.077C575.951 256.077 575.652 256.161 575.43 256.327C575.207 256.491 575.06 256.697 574.988 256.945L573.056 256.788C573.154 256.331 573.347 255.935 573.634 255.601C573.922 255.264 574.293 255.006 574.748 254.826C575.206 254.643 575.735 254.552 576.337 254.552C576.756 254.552 577.156 254.601 577.539 254.699C577.925 254.797 578.267 254.949 578.564 255.155C578.865 255.361 579.102 255.626 579.275 255.95C579.449 256.27 579.535 256.654 579.535 257.102V262.184H577.554V261.139H577.495C577.374 261.375 577.212 261.582 577.009 261.762C576.806 261.939 576.563 262.078 576.278 262.179C575.994 262.277 575.665 262.326 575.292 262.326ZM575.891 260.884C576.198 260.884 576.47 260.824 576.705 260.703C576.941 260.579 577.125 260.412 577.259 260.202C577.393 259.993 577.461 259.756 577.461 259.491V258.692C577.395 258.734 577.305 258.773 577.191 258.809C577.08 258.842 576.954 258.873 576.813 258.903C576.672 258.929 576.532 258.953 576.391 258.976C576.251 258.996 576.123 259.014 576.009 259.03C575.763 259.066 575.549 259.123 575.366 259.202C575.183 259.28 575.041 259.387 574.939 259.521C574.838 259.651 574.787 259.815 574.787 260.011C574.787 260.296 574.89 260.513 575.096 260.664C575.305 260.811 575.57 260.884 575.891 260.884ZM581.325 262.184V260.938L585.013 256.371V256.317H581.452V254.65H587.53V256.008L584.067 260.462V260.516H587.657V262.184H581.325ZM592.651 262.331C591.889 262.331 591.23 262.169 590.674 261.846C590.121 261.519 589.695 261.064 589.394 260.482C589.093 259.897 588.942 259.218 588.942 258.446C588.942 257.668 589.093 256.988 589.394 256.406C589.695 255.82 590.121 255.366 590.674 255.042C591.23 254.715 591.889 254.552 592.651 254.552C593.413 254.552 594.07 254.715 594.623 255.042C595.179 255.366 595.607 255.82 595.908 256.406C596.209 256.988 596.359 257.668 596.359 258.446C596.359 259.218 596.209 259.897 595.908 260.482C595.607 261.064 595.179 261.519 594.623 261.846C594.07 262.169 593.413 262.331 592.651 262.331ZM592.661 260.713C593.007 260.713 593.297 260.615 593.529 260.418C593.761 260.219 593.936 259.947 594.054 259.604C594.175 259.261 594.235 258.87 594.235 258.432C594.235 257.993 594.175 257.603 594.054 257.259C593.936 256.916 593.761 256.644 593.529 256.445C593.297 256.246 593.007 256.146 592.661 256.146C592.311 256.146 592.016 256.246 591.778 256.445C591.542 256.644 591.364 256.916 591.243 257.259C591.125 257.603 591.066 257.993 591.066 258.432C591.066 258.87 591.125 259.261 591.243 259.604C591.364 259.947 591.542 260.219 591.778 260.418C592.016 260.615 592.311 260.713 592.661 260.713ZM600.015 257.828V262.184H597.925V254.65H599.917V255.979H600.005C600.172 255.541 600.451 255.194 600.844 254.939C601.236 254.681 601.712 254.552 602.271 254.552C602.795 254.552 603.251 254.666 603.64 254.895C604.029 255.124 604.332 255.451 604.547 255.876C604.763 256.298 604.871 256.801 604.871 257.387V262.184H602.781V257.76C602.785 257.299 602.667 256.939 602.428 256.68C602.19 256.419 601.861 256.288 601.442 256.288C601.161 256.288 600.913 256.349 600.697 256.47C600.484 256.591 600.317 256.767 600.196 256.999C600.079 257.228 600.018 257.505 600.015 257.828ZM612.43 262.184L609.556 252.138H611.876L613.539 259.118H613.622L615.457 252.138H617.443L619.273 259.133H619.361L621.024 252.138H623.344L620.47 262.184H618.4L616.487 255.616H616.408L614.5 262.184H612.43ZM627.273 262.331C626.498 262.331 625.831 262.174 625.272 261.86C624.716 261.543 624.288 261.095 623.987 260.516C623.686 259.934 623.536 259.246 623.536 258.451C623.536 257.676 623.686 256.996 623.987 256.411C624.288 255.825 624.711 255.369 625.257 255.042C625.807 254.715 626.451 254.552 627.19 254.552C627.687 254.552 628.15 254.632 628.578 254.792C629.01 254.949 629.386 255.186 629.706 255.503C630.03 255.82 630.282 256.219 630.462 256.7C630.642 257.178 630.732 257.737 630.732 258.378V258.952H624.37V257.657H628.765C628.765 257.356 628.699 257.089 628.568 256.857C628.438 256.625 628.256 256.443 628.024 256.313C627.795 256.178 627.529 256.111 627.224 256.111C626.907 256.111 626.626 256.185 626.381 256.332C626.139 256.476 625.949 256.671 625.812 256.916C625.674 257.158 625.604 257.428 625.601 257.725V258.957C625.601 259.329 625.669 259.651 625.807 259.923C625.947 260.194 626.145 260.404 626.4 260.551C626.655 260.698 626.958 260.771 627.308 260.771C627.54 260.771 627.753 260.739 627.945 260.673C628.138 260.608 628.304 260.51 628.441 260.379C628.578 260.248 628.683 260.088 628.755 259.898L630.688 260.026C630.589 260.49 630.388 260.896 630.084 261.242C629.783 261.586 629.394 261.854 628.917 262.047C628.443 262.237 627.895 262.331 627.273 262.331ZM632.342 262.184V252.138H634.431V255.915H634.495C634.587 255.712 634.719 255.506 634.893 255.297C635.069 255.085 635.298 254.908 635.579 254.767C635.864 254.624 636.217 254.552 636.639 254.552C637.188 254.552 637.695 254.695 638.159 254.983C638.624 255.268 638.995 255.698 639.273 256.273C639.551 256.846 639.69 257.563 639.69 258.427C639.69 259.267 639.554 259.977 639.283 260.556C639.015 261.131 638.648 261.568 638.184 261.865C637.723 262.16 637.206 262.307 636.634 262.307C636.228 262.307 635.883 262.24 635.599 262.106C635.318 261.972 635.087 261.803 634.907 261.6C634.727 261.394 634.59 261.187 634.495 260.978H634.402V262.184H632.342ZM634.387 258.417C634.387 258.865 634.449 259.256 634.574 259.589C634.698 259.923 634.878 260.183 635.113 260.369C635.349 260.552 635.635 260.644 635.972 260.644C636.312 260.644 636.6 260.551 636.835 260.364C637.071 260.175 637.249 259.913 637.37 259.579C637.494 259.243 637.556 258.855 637.556 258.417C637.556 257.982 637.496 257.599 637.375 257.269C637.254 256.939 637.075 256.68 636.84 256.494C636.605 256.308 636.315 256.214 635.972 256.214C635.632 256.214 635.344 256.304 635.108 256.484C634.876 256.664 634.698 256.919 634.574 257.249C634.449 257.58 634.387 257.969 634.387 258.417ZM650.185 255.027C650.145 254.632 649.977 254.324 649.679 254.105C649.382 253.886 648.978 253.777 648.468 253.777C648.121 253.777 647.829 253.826 647.59 253.924C647.351 254.019 647.168 254.151 647.04 254.321C646.916 254.491 646.854 254.684 646.854 254.9C646.847 255.08 646.885 255.237 646.967 255.371C647.052 255.505 647.168 255.621 647.315 255.719C647.462 255.814 647.632 255.897 647.825 255.969C648.018 256.038 648.224 256.097 648.443 256.146L649.346 256.362C649.784 256.46 650.186 256.591 650.553 256.754C650.919 256.918 651.236 257.119 651.504 257.357C651.772 257.596 651.98 257.877 652.127 258.201C652.278 258.525 652.354 258.896 652.358 259.315C652.354 259.929 652.198 260.462 651.887 260.914C651.579 261.362 651.135 261.71 650.553 261.959C649.974 262.204 649.276 262.326 648.458 262.326C647.647 262.326 646.941 262.202 646.339 261.954C645.741 261.705 645.273 261.337 644.936 260.85C644.603 260.359 644.428 259.753 644.411 259.03H646.467C646.489 259.367 646.586 259.648 646.756 259.874C646.929 260.096 647.16 260.265 647.448 260.379C647.739 260.49 648.067 260.546 648.434 260.546C648.793 260.546 649.106 260.494 649.37 260.389C649.639 260.284 649.846 260.139 649.993 259.952C650.141 259.766 650.214 259.552 650.214 259.31C650.214 259.084 650.147 258.894 650.013 258.741C649.882 258.587 649.689 258.456 649.434 258.348C649.182 258.24 648.873 258.142 648.507 258.054L647.413 257.779C646.566 257.573 645.897 257.251 645.407 256.813C644.916 256.375 644.673 255.784 644.676 255.042C644.673 254.434 644.835 253.902 645.162 253.448C645.492 252.993 645.945 252.639 646.52 252.383C647.096 252.128 647.75 252.001 648.483 252.001C649.228 252.001 649.879 252.128 650.435 252.383C650.994 252.639 651.429 252.993 651.74 253.448C652.05 253.902 652.211 254.429 652.22 255.027H650.185ZM657.388 262.331C656.613 262.331 655.946 262.174 655.387 261.86C654.831 261.543 654.402 261.095 654.102 260.516C653.801 259.934 653.65 259.246 653.65 258.451C653.65 257.676 653.801 256.996 654.102 256.411C654.402 255.825 654.826 255.369 655.372 255.042C655.921 254.715 656.566 254.552 657.305 254.552C657.802 254.552 658.265 254.632 658.693 254.792C659.125 254.949 659.501 255.186 659.821 255.503C660.145 255.82 660.397 256.219 660.577 256.7C660.756 257.178 660.846 257.737 660.846 258.378V258.952H654.484V257.657H658.879C658.879 257.356 658.814 257.089 658.683 256.857C658.552 256.625 658.371 256.443 658.139 256.313C657.91 256.178 657.643 256.111 657.339 256.111C657.022 256.111 656.741 256.185 656.495 256.332C656.253 256.476 656.064 256.671 655.926 256.916C655.789 257.158 655.719 257.428 655.715 257.725V258.957C655.715 259.329 655.784 259.651 655.921 259.923C656.062 260.194 656.26 260.404 656.515 260.551C656.77 260.698 657.073 260.771 657.422 260.771C657.655 260.771 657.867 260.739 658.06 260.673C658.253 260.608 658.418 260.51 658.556 260.379C658.693 260.248 658.798 260.088 658.869 259.898L660.802 260.026C660.704 260.49 660.503 260.896 660.199 261.242C659.898 261.586 659.509 261.854 659.031 262.047C658.557 262.237 658.009 262.331 657.388 262.331ZM662.417 262.184V254.65H664.443V255.964H664.522C664.659 255.497 664.889 255.143 665.213 254.905C665.537 254.663 665.91 254.542 666.332 254.542C666.436 254.542 666.549 254.548 666.67 254.561C666.791 254.574 666.897 254.592 666.989 254.615V256.47C666.891 256.44 666.755 256.414 666.582 256.391C666.408 256.368 666.25 256.357 666.106 256.357C665.799 256.357 665.524 256.424 665.282 256.558C665.043 256.689 664.853 256.872 664.713 257.107C664.576 257.343 664.507 257.614 664.507 257.922V262.184H662.417ZM675.53 254.65L672.896 262.184H670.542L667.907 254.65H670.115L671.68 260.041H671.758L673.318 254.65H675.53ZM676.807 262.184V254.65H678.896V262.184H676.807ZM677.857 253.678C677.546 253.678 677.279 253.575 677.057 253.369C676.838 253.16 676.728 252.91 676.728 252.619C676.728 252.331 676.838 252.084 677.057 251.878C677.279 251.669 677.546 251.564 677.857 251.564C678.167 251.564 678.432 251.669 678.651 251.878C678.874 252.084 678.985 252.331 678.985 252.619C678.985 252.91 678.874 253.16 678.651 253.369C678.432 253.575 678.167 253.678 677.857 253.678ZM684.182 262.331C683.41 262.331 682.746 262.168 682.19 261.841C681.638 261.511 681.213 261.053 680.915 260.467C680.621 259.882 680.473 259.208 680.473 258.446C680.473 257.675 680.622 256.998 680.92 256.416C681.221 255.83 681.647 255.374 682.2 255.047C682.753 254.717 683.41 254.552 684.172 254.552C684.829 254.552 685.405 254.671 685.899 254.91C686.392 255.148 686.783 255.484 687.071 255.915C687.359 256.347 687.517 256.854 687.547 257.436H685.575C685.519 257.06 685.372 256.757 685.133 256.528C684.898 256.296 684.589 256.18 684.206 256.18C683.883 256.18 683.6 256.268 683.358 256.445C683.119 256.618 682.933 256.872 682.799 257.205C682.664 257.539 682.597 257.943 682.597 258.417C682.597 258.898 682.663 259.306 682.794 259.643C682.928 259.98 683.116 260.237 683.358 260.413C683.6 260.59 683.883 260.678 684.206 260.678C684.445 260.678 684.659 260.629 684.849 260.531C685.042 260.433 685.201 260.291 685.325 260.104C685.452 259.915 685.536 259.687 685.575 259.423H687.547C687.514 259.998 687.357 260.505 687.076 260.943C686.798 261.378 686.414 261.718 685.923 261.963C685.433 262.209 684.852 262.331 684.182 262.331ZM692.526 262.331C691.751 262.331 691.084 262.174 690.524 261.86C689.968 261.543 689.54 261.095 689.239 260.516C688.938 259.934 688.788 259.246 688.788 258.451C688.788 257.676 688.938 256.996 689.239 256.411C689.54 255.825 689.963 255.369 690.51 255.042C691.059 254.715 691.703 254.552 692.442 254.552C692.939 254.552 693.402 254.632 693.831 254.792C694.262 254.949 694.638 255.186 694.959 255.503C695.282 255.82 695.534 256.219 695.714 256.7C695.894 257.178 695.984 257.737 695.984 258.378V258.952H689.622V257.657H694.017C694.017 257.356 693.951 257.089 693.821 256.857C693.69 256.625 693.508 256.443 693.276 256.313C693.047 256.178 692.781 256.111 692.477 256.111C692.159 256.111 691.878 256.185 691.633 256.332C691.391 256.476 691.201 256.671 691.064 256.916C690.927 257.158 690.856 257.428 690.853 257.725V258.957C690.853 259.329 690.922 259.651 691.059 259.923C691.2 260.194 691.397 260.404 691.653 260.551C691.908 260.698 692.21 260.771 692.56 260.771C692.792 260.771 693.005 260.739 693.198 260.673C693.391 260.608 693.556 260.51 693.693 260.379C693.831 260.248 693.935 260.088 694.007 259.898L695.94 260.026C695.842 260.49 695.641 260.896 695.336 261.242C695.036 261.586 694.646 261.854 694.169 262.047C693.695 262.237 693.147 262.331 692.526 262.331ZM703.824 256.798L701.911 256.916C701.878 256.752 701.808 256.605 701.7 256.474C701.592 256.34 701.45 256.234 701.273 256.156C701.1 256.074 700.892 256.033 700.65 256.033C700.326 256.033 700.053 256.102 699.831 256.239C699.608 256.373 699.497 256.553 699.497 256.779C699.497 256.958 699.569 257.11 699.713 257.235C699.857 257.359 700.104 257.459 700.454 257.534L701.817 257.809C702.55 257.959 703.096 258.201 703.456 258.535C703.816 258.868 703.995 259.306 703.995 259.849C703.995 260.343 703.85 260.776 703.559 261.149C703.271 261.522 702.875 261.813 702.372 262.022C701.871 262.228 701.294 262.331 700.64 262.331C699.643 262.331 698.848 262.124 698.256 261.708C697.668 261.29 697.323 260.721 697.221 260.001L699.277 259.893C699.339 260.198 699.489 260.43 699.728 260.59C699.967 260.747 700.272 260.825 700.645 260.825C701.011 260.825 701.306 260.755 701.528 260.615C701.754 260.471 701.868 260.286 701.871 260.06C701.868 259.871 701.788 259.715 701.631 259.594C701.474 259.47 701.232 259.375 700.905 259.31L699.6 259.05C698.864 258.903 698.317 258.647 697.957 258.284C697.601 257.922 697.422 257.459 697.422 256.896C697.422 256.412 697.553 255.995 697.815 255.645C698.08 255.296 698.451 255.026 698.928 254.836C699.409 254.646 699.971 254.552 700.616 254.552C701.567 254.552 702.316 254.753 702.862 255.155C703.412 255.557 703.732 256.105 703.824 256.798Z" fill="black"/>
<defs>
<clipPath id="clip0_2298_5691">
<rect width="247.471" height="147.902" fill="white" transform="translate(448.963 44.845)"/>
</clipPath>
</defs>
</svg>
