<svg width="589" height="119" viewBox="0 0 589 119" fill="none" xmlns="http://www.w3.org/2000/svg">
<g clip-path="url(#clip0_2298_5691)">
<path d="M56.8185 45.369C56.8185 47.4742 57.0466 49.1808 57.4446 50.4324C57.9499 51.8405 58.5582 53.2095 59.2646 54.5282C59.5492 54.9832 59.6626 55.4382 59.6626 55.8368C59.6626 56.4053 59.3217 56.9744 58.5821 57.5435L54.9984 59.9326C54.4864 60.2742 53.9743 60.4446 53.5186 60.4446C52.9502 60.4446 52.3811 60.1601 51.812 59.648C51.0449 58.8249 50.3592 57.9295 49.7645 56.9744C49.1954 56.008 48.6263 54.9262 48.0008 53.6182C43.563 58.8514 37.9879 61.4683 31.2756 61.4688C26.4973 61.4688 22.6854 60.1031 19.8976 57.373C17.1105 54.6416 15.6885 51.0009 15.6885 46.4501C15.6885 41.6148 17.3951 37.6895 20.8654 34.7313C24.335 31.7731 28.9435 30.2939 34.8029 30.2939C36.737 30.2939 38.7282 30.4644 40.8327 30.7489C42.938 31.0335 45.0996 31.4885 47.3753 32.0006V27.8478C47.3753 23.5238 46.4647 20.5092 44.701 18.7456C42.881 16.9819 39.8086 16.1283 35.4283 16.1283C33.4372 16.1283 31.3896 16.3564 29.2844 16.8685C27.1791 17.3805 25.1316 18.006 23.1404 18.8026C22.2304 19.2006 21.5479 19.4281 21.1493 19.5422C20.7506 19.6563 20.4667 19.7126 20.2392 19.7126C19.4426 19.7126 19.0447 19.1435 19.0447 17.949V15.1612C19.0447 14.2512 19.1588 13.5687 19.4426 13.1707C19.7272 12.7721 20.2392 12.3741 21.0358 11.9761C23.0268 10.9516 25.4159 10.0982 28.2032 9.41588C30.9917 8.67632 33.9499 8.3354 37.0786 8.3354C43.8487 8.3354 48.7981 9.87089 51.9838 12.9432C55.1125 16.0148 56.7057 20.6797 56.7057 26.9377V45.369H56.8185ZM33.7217 54.0161C35.5995 54.0161 37.5336 53.6752 39.5811 52.992C41.6294 52.3095 43.4501 51.0579 44.9855 49.3513C45.8962 48.2708 46.5787 47.0762 46.9197 45.7105C47.2613 44.3455 47.4888 42.6953 47.4888 40.7612V38.372C45.7635 37.9524 44.0161 37.6295 42.2548 37.405C40.4812 37.1799 38.6953 37.0658 36.9075 37.0634C33.0956 37.0634 30.3085 37.8029 28.4314 39.3391C26.5543 40.8752 25.6436 43.0369 25.6436 45.881C25.6436 48.5547 26.3262 50.5459 27.7482 51.9116C29.1139 53.3336 31.1051 54.0161 33.7217 54.0161ZM79.4031 60.1601C78.379 60.1601 77.6965 59.9896 77.2415 59.591C76.7865 59.2501 76.3879 58.4535 76.0469 57.373L62.6785 13.3982C62.3363 12.26 62.1658 11.5205 62.1658 11.1225C62.1658 10.2125 62.6208 9.69976 63.5315 9.69976H69.1064C70.1869 9.69976 70.9271 9.87089 71.3251 10.2689C71.7801 10.6104 72.1217 11.407 72.4626 12.4875L82.0198 50.1479L90.8945 12.4875C91.179 11.35 91.5206 10.6104 91.9749 10.2689C92.4306 9.92793 93.2272 9.70043 94.2513 9.70043H98.8021C99.8826 9.70043 100.623 9.87089 101.077 10.2689C101.533 10.6104 101.931 11.407 102.158 12.4875L111.147 50.6029L120.988 12.4875C121.329 11.35 121.728 10.6104 122.126 10.2689C122.581 9.92793 123.32 9.70043 124.344 9.70043H129.635C130.545 9.70043 131.057 10.1554 131.057 11.1225C131.057 11.407 131 11.6916 130.943 12.0325C130.886 12.3734 130.773 12.8291 130.545 13.4553L116.835 57.4294C116.494 58.5676 116.096 59.3071 115.64 59.648C115.185 59.9896 114.446 60.2171 113.479 60.2171H108.587C107.506 60.2171 106.766 60.0467 106.31 59.648C105.855 59.2501 105.457 58.5105 105.23 57.373L96.4116 20.6797L87.651 57.3153C87.3671 58.4535 87.0255 59.193 86.5705 59.591C86.1155 59.9896 85.3189 60.1601 84.2955 60.1601H79.4031ZM152.505 61.6963C149.546 61.6963 146.588 61.3547 143.744 60.6722C140.899 59.9896 138.681 59.2494 137.202 58.3971C136.291 57.8844 135.665 57.316 135.438 56.8039C135.217 56.3017 135.101 55.7595 135.097 55.2107V52.3095C135.097 51.115 135.552 50.5459 136.405 50.5459C136.754 50.5471 137.1 50.6049 137.43 50.717C137.77 50.8311 138.282 51.0579 138.852 51.2854C140.861 52.1697 142.958 52.8372 145.109 53.2766C147.337 53.7284 149.605 53.957 151.879 53.9591C155.463 53.9591 158.251 53.3336 160.185 52.082C162.119 50.8304 163.143 49.0104 163.143 46.6776C163.143 45.0851 162.631 43.7764 161.607 42.6953C160.583 41.6141 158.648 40.6477 155.861 39.7371L147.612 37.1775C143.459 35.8688 140.388 33.9347 138.51 31.3744C136.633 28.8712 135.666 26.0841 135.666 23.1259C135.666 20.7367 136.178 18.6317 137.202 16.8108C138.225 14.9907 139.591 13.3982 141.298 12.1466C143.004 10.8379 144.939 9.87089 147.214 9.18837C149.489 8.50586 151.878 8.22131 154.382 8.22131C155.633 8.22131 156.942 8.27836 158.193 8.44882C159.502 8.61928 160.697 8.84678 161.891 9.07429C163.029 9.35884 164.11 9.64338 165.134 9.98498C166.158 10.3259 166.954 10.667 167.523 11.0084C168.32 11.4641 168.888 11.9191 169.23 12.4312C169.571 12.8862 169.742 13.5119 169.742 14.3082V16.9819C169.742 18.1765 169.287 18.8026 168.433 18.8026C167.978 18.8026 167.239 18.5744 166.272 18.1194C163.029 16.6403 159.388 15.9008 155.349 15.9008C152.107 15.9008 149.546 16.4128 147.783 17.494C146.02 18.5744 145.109 20.2247 145.109 22.5568C145.109 24.15 145.678 25.515 146.816 26.5962C147.953 27.6773 150.058 28.7578 153.074 29.7248L161.152 32.2851C165.247 33.5938 168.206 35.4138 169.969 37.7459C171.733 40.078 172.587 42.7523 172.587 45.7105C172.587 48.1567 172.074 50.3754 171.107 52.3095C170.083 54.2436 168.718 55.9503 166.954 57.316C165.19 58.738 163.086 59.7621 160.64 60.5017C158.079 61.2983 155.406 61.6963 152.505 61.6963Z" fill="#252F3E"/>
<path d="M163.261 89.3425C144.545 103.167 117.352 110.505 93.9717 110.505C61.2037 110.505 31.6792 98.3877 9.37902 78.2492C7.61536 76.6566 9.20789 74.495 11.3125 75.746C35.4333 89.7412 65.186 98.2172 95.9629 98.2172C116.727 98.2172 139.539 93.894 160.531 85.0193C163.66 83.5965 166.334 87.0675 163.261 89.3425ZM171.055 80.4678C168.666 77.3962 155.24 78.9887 149.153 79.7283C147.333 79.9565 147.048 78.3633 148.698 77.1687C159.393 69.659 176.972 71.8213 179.019 74.3239C181.068 76.8842 178.45 94.4624 168.438 102.882C166.903 104.191 165.424 103.508 166.106 101.802C168.381 96.169 173.445 83.4831 171.055 80.4678Z" fill="#FF9900"/>
</g>
<path d="M205.553 119L204.053 119L204.053 6.55671e-08L205.553 0L205.553 119Z" fill="#BDBDBD"/>
<path d="M244.146 79.3809C243.164 79.3809 242.324 79.0312 241.626 78.3319C240.928 77.6325 240.578 76.794 240.577 75.8164V56.4479C240.577 55.4673 240.926 54.6281 241.626 53.9302C242.325 53.2323 243.164 52.8819 244.143 52.8789H247.202V48.4619C247.202 46.0017 248.06 43.9146 249.775 42.2008C251.489 40.4856 253.576 39.6279 256.036 39.6279C258.496 39.6279 260.584 40.4856 262.299 42.2008C264.015 43.9161 264.872 46.0031 264.87 48.4619V52.8789H267.929C268.909 52.8789 269.749 53.2286 270.447 53.928C271.144 54.6273 271.494 55.4665 271.496 56.4456V75.8142C271.496 76.7948 271.146 77.634 270.447 78.3319C269.747 79.0298 268.908 79.3794 267.929 79.3809H244.146ZM256.036 69.4427C256.968 69.4427 257.753 69.1232 258.39 68.4842C259.029 67.8467 259.349 67.0619 259.349 66.1299C259.349 65.1979 259.029 64.4132 258.39 63.7757C257.751 63.1381 256.967 62.8186 256.036 62.8172C255.106 62.8157 254.321 63.1352 253.682 63.7757C253.043 64.4132 252.723 65.1979 252.723 66.1299C252.723 67.0619 253.043 67.8467 253.682 68.4842C254.319 69.1232 255.104 69.4427 256.036 69.4427ZM249.411 52.8789H262.662V48.4619C262.662 46.6215 262.017 45.0572 260.729 43.7689C259.441 42.4806 257.877 41.8364 256.036 41.8364C254.196 41.8364 252.631 42.4806 251.343 43.7689C250.055 45.0572 249.411 46.6215 249.411 48.4619V52.8789Z" fill="#5E5E5E"/>
<path d="M302.33 72H293.22V46.3011H302.405C304.99 46.3011 307.215 46.8156 309.081 47.8446C310.946 48.8651 312.381 50.3333 313.385 52.249C314.397 54.1647 314.903 56.4569 314.903 59.1255C314.903 61.8024 314.397 64.1029 313.385 66.027C312.381 67.9511 310.938 69.4276 309.056 70.4566C307.182 71.4855 304.94 72 302.33 72ZM298.653 67.3446H302.104C303.71 67.3446 305.061 67.0602 306.157 66.4913C307.261 65.9141 308.09 65.0232 308.642 63.8185C309.202 62.6055 309.483 61.0412 309.483 59.1255C309.483 57.2265 309.202 55.6747 308.642 54.47C308.09 53.2654 307.266 52.3787 306.17 51.8098C305.074 51.241 303.723 50.9565 302.117 50.9565H298.653V67.3446ZM322.438 72H316.616L325.488 46.3011H332.49L341.349 72H335.526L329.089 52.1737H328.888L322.438 72ZM322.075 61.8986H335.828V66.14H322.075V61.8986ZM340.853 50.7808V46.3011H361.959V50.7808H354.091V72H348.721V50.7808H340.853ZM367.254 72H361.432L370.304 46.3011H377.306L386.165 72H380.342L373.905 52.1737H373.704L367.254 72ZM366.891 61.8986H380.643V66.14H366.891V61.8986ZM412.437 53.6921C412.337 52.6798 411.906 51.8935 411.145 51.333C410.384 50.7725 409.351 50.4922 408.046 50.4922C407.159 50.4922 406.41 50.6177 405.799 50.8687C405.189 51.1113 404.72 51.4501 404.394 51.8851C404.076 52.3201 403.917 52.8137 403.917 53.3658C403.9 53.8259 403.997 54.2274 404.206 54.5704C404.423 54.9134 404.72 55.2104 405.097 55.4614C405.473 55.704 405.908 55.9173 406.402 56.1013C406.895 56.277 407.422 56.4276 407.983 56.5531L410.292 57.1052C411.413 57.3562 412.442 57.6908 413.379 58.109C414.315 58.5273 415.127 59.0418 415.813 59.6525C416.499 60.2632 417.03 60.9826 417.407 61.8108C417.791 62.639 417.988 63.5885 417.996 64.6593C417.988 66.232 417.586 67.5956 416.792 68.75C416.005 69.8961 414.868 70.787 413.379 71.4228C411.898 72.0502 410.112 72.3639 408.02 72.3639C405.946 72.3639 404.139 72.046 402.6 71.4102C401.069 70.7745 399.872 69.8333 399.011 68.5869C398.157 67.332 397.71 65.7802 397.668 63.9315H402.926C402.984 64.7931 403.231 65.5125 403.666 66.0898C404.11 66.6586 404.699 67.0894 405.435 67.3822C406.18 67.6667 407.021 67.8089 407.958 67.8089C408.878 67.8089 409.677 67.675 410.354 67.4073C411.04 67.1396 411.572 66.7674 411.948 66.2905C412.324 65.8137 412.513 65.2658 412.513 64.6467C412.513 64.0695 412.341 63.5843 411.998 63.1911C411.664 62.7979 411.17 62.4633 410.518 62.1872C409.873 61.9112 409.083 61.6602 408.146 61.4343L405.348 60.7316C403.181 60.2046 401.47 59.3806 400.215 58.2596C398.961 57.1386 398.337 55.6287 398.346 53.7297C398.337 52.1737 398.751 50.8143 399.588 49.6515C400.433 48.4887 401.592 47.581 403.064 46.9285C404.536 46.276 406.209 45.9498 408.083 45.9498C409.99 45.9498 411.655 46.276 413.077 46.9285C414.508 47.581 415.62 48.4887 416.415 49.6515C417.21 50.8143 417.62 52.1612 417.645 53.6921H412.437ZM422.181 72V46.3011H439.498V50.7808H427.614V56.9044H438.607V61.3841H427.614V67.5203H439.548V72H422.181ZM467.022 55.2982H461.526C461.426 54.5872 461.221 53.9556 460.911 53.4034C460.602 52.8429 460.204 52.3661 459.719 51.9729C459.234 51.5798 458.673 51.2786 458.038 51.0695C457.41 50.8603 456.728 50.7558 455.992 50.7558C454.662 50.7558 453.504 51.0862 452.516 51.7471C451.529 52.3996 450.764 53.3532 450.22 54.6081C449.676 55.8545 449.404 57.3687 449.404 59.1506C449.404 60.9826 449.676 62.5219 450.22 63.7683C450.772 65.0148 451.542 65.9559 452.529 66.5917C453.516 67.2275 454.658 67.5454 455.955 67.5454C456.682 67.5454 457.356 67.4492 457.975 67.2567C458.602 67.0643 459.159 66.7841 459.644 66.416C460.129 66.0396 460.531 65.5836 460.848 65.0482C461.175 64.5129 461.401 63.9022 461.526 63.2162L467.022 63.2413C466.88 64.4208 466.524 65.5585 465.956 66.6544C465.395 67.7419 464.638 68.7165 463.684 69.5782C462.739 70.4315 461.61 71.1091 460.296 71.611C458.991 72.1046 457.515 72.3514 455.867 72.3514C453.575 72.3514 451.525 71.8327 449.718 70.7954C447.92 69.758 446.497 68.2564 445.452 66.2905C444.414 64.3246 443.896 61.9446 443.896 59.1506C443.896 56.3481 444.423 53.9639 445.477 51.998C446.531 50.0321 447.961 48.5347 449.768 47.5057C451.575 46.4684 453.608 45.9498 455.867 45.9498C457.356 45.9498 458.736 46.1589 460.008 46.5772C461.288 46.9954 462.421 47.6061 463.408 48.4092C464.395 49.2039 465.199 50.1785 465.818 51.333C466.445 52.4874 466.847 53.8092 467.022 55.2982ZM487.322 46.3011H492.755V62.9903C492.755 64.8642 492.308 66.5039 491.413 67.9093C490.526 69.3147 489.284 70.4106 487.686 71.1969C486.088 71.9749 484.227 72.3639 482.102 72.3639C479.969 72.3639 478.103 71.9749 476.505 71.1969C474.908 70.4106 473.665 69.3147 472.779 67.9093C471.892 66.5039 471.448 64.8642 471.448 62.9903V46.3011H476.882V62.526C476.882 63.5048 477.095 64.3748 477.522 65.1361C477.957 65.8974 478.568 66.4955 479.354 66.9305C480.14 67.3655 481.056 67.583 482.102 67.583C483.156 67.583 484.072 67.3655 484.85 66.9305C485.636 66.4955 486.243 65.8974 486.67 65.1361C487.105 64.3748 487.322 63.5048 487.322 62.526V46.3011ZM497.756 72V46.3011H507.895C509.836 46.3011 511.492 46.6483 512.864 47.3426C514.244 48.0286 515.294 49.0032 516.014 50.2664C516.741 51.5212 517.105 52.9977 517.105 54.6959C517.105 56.4025 516.737 57.8706 516.001 59.1004C515.265 60.3217 514.198 61.2587 512.801 61.9112C511.413 62.5637 509.731 62.8899 507.757 62.8899H500.968V58.5231H506.878C507.916 58.5231 508.777 58.3809 509.463 58.0965C510.149 57.8121 510.66 57.3854 510.994 56.8166C511.337 56.2477 511.509 55.5408 511.509 54.6959C511.509 53.8426 511.337 53.1232 510.994 52.5376C510.66 51.952 510.145 51.5086 509.451 51.2075C508.765 50.898 507.899 50.7432 506.853 50.7432H503.189V72H497.756ZM511.634 60.305L518.021 72H512.023L505.774 60.305H511.634ZM526.909 46.3011V72H521.475V46.3011H526.909ZM530.93 50.7808V46.3011H552.036V50.7808H544.169V72H538.798V50.7808H530.93ZM554.536 46.3011H560.622L566.482 57.3687H566.733L572.593 46.3011H578.679L569.306 62.915V72H563.91V62.915L554.536 46.3011Z" fill="#5E5E5E"/>
<defs>
<clipPath id="clip0_2298_5691">
<rect width="171.803" height="102.679" fill="white" transform="translate(8.25 8.16052)"/>
</clipPath>
</defs>
</svg>
